<svg xmlns="http://www.w3.org/2000/svg" width="100" height="100" viewBox="0 0 100 100" preserveAspectRatio="xMidYMid meet"><rect fill="#ffffff" fill-opacity="1" x="0" y="0" width="100" height="100"/><path fill="#3d42b7" d="M29 18.5L39.5 8L50 18.5L39.5 29ZM60.5 8L71 18.5L60.5 29L50 18.5ZM71 81.5L60.5 92L50 81.5L60.5 71ZM39.5 92L29 81.5L39.5 71L50 81.5ZM8 39.5L18.5 29L29 39.5L18.5 50ZM81.5 29L92 39.5L81.5 50L71 39.5ZM92 60.5L81.5 71L71 60.5L81.5 50ZM18.5 71L8 60.5L18.5 50L29 60.5Z"/><path fill="#8488d6" d="M29 8L29 29L8 29ZM92 29L71 29L71 8ZM71 92L71 71L92 71ZM8 71L29 71L29 92Z"/><path fill="#eaeaea" d="M29 29L50 29L50 50L29 50ZM42.5 47.9L47.9 37L37 37ZM71 29L71 50L50 50L50 29ZM52.1 42.5L63 47.9L63 37ZM71 71L50 71L50 50L71 50ZM57.6 52.1L52.1 63L63 63ZM29 71L29 50L50 50L50 71ZM47.9 57.6L37 52.1L37 63Z"/></svg>