<svg xmlns="http://www.w3.org/2000/svg" width="100" height="100" viewBox="0 0 100 100" preserveAspectRatio="xMidYMid meet"><rect fill="#ffffff" fill-opacity="1" x="0" y="0" width="100" height="100"/><path fill="#eaeaea" d="M32.5 18.5a7,7 0 1,1 14,0a7,7 0 1,1 -14,0M53.5 18.5a7,7 0 1,1 14,0a7,7 0 1,1 -14,0M53.5 81.5a7,7 0 1,1 14,0a7,7 0 1,1 -14,0M32.5 81.5a7,7 0 1,1 14,0a7,7 0 1,1 -14,0M11.5 39.5a7,7 0 1,1 14,0a7,7 0 1,1 -14,0M74.5 39.5a7,7 0 1,1 14,0a7,7 0 1,1 -14,0M74.5 60.5a7,7 0 1,1 14,0a7,7 0 1,1 -14,0M11.5 60.5a7,7 0 1,1 14,0a7,7 0 1,1 -14,0"/><path fill="#848bd6" d="M8 8L29 8L29 18.5ZM92 8L92 29L81.5 29ZM92 92L71 92L71 81.5ZM8 92L8 71L18.5 71ZM37.4 50a12.6,12.6 0 1,1 25.2,0a12.6,12.6 0 1,1 -25.2,0M37.4 50a12.6,12.6 0 1,1 25.2,0a12.6,12.6 0 1,1 -25.2,0M37.4 50a12.6,12.6 0 1,1 25.2,0a12.6,12.6 0 1,1 -25.2,0"/></svg>