<svg xmlns="http://www.w3.org/2000/svg" width="100" height="100" viewBox="0 0 100 100" preserveAspectRatio="xMidYMid meet"><rect fill="#ffffff" fill-opacity="1" x="0" y="0" width="100" height="100"/><path fill="#545454" d="M50 29L29 29L29 8ZM50 29L50 8L71 8ZM50 71L71 71L71 92ZM50 71L50 92L29 92ZM29 50L8 50L8 29ZM71 50L71 29L92 29ZM71 50L92 50L92 71ZM29 50L29 71L8 71Z"/><path fill="#d1759c" d="M11.5 18.5a7,7 0 1,1 14,0a7,7 0 1,1 -14,0M74.5 18.5a7,7 0 1,1 14,0a7,7 0 1,1 -14,0M74.5 81.5a7,7 0 1,1 14,0a7,7 0 1,1 -14,0M11.5 81.5a7,7 0 1,1 14,0a7,7 0 1,1 -14,0"/><path fill="#e8e8e8" d="M29 29L50 29L50 32.4L41.2 50L29 50ZM71 29L71 50L67.6 50L50 41.2L50 29ZM71 71L50 71L50 67.6L58.8 50L71 50ZM29 71L29 50L32.4 50L50 58.8L50 71Z"/></svg>