<svg xmlns="http://www.w3.org/2000/svg" width="100" height="100" viewBox="0 0 100 100" preserveAspectRatio="xMidYMid meet"><rect fill="#ffffff" fill-opacity="1" x="0" y="0" width="100" height="100"/><path fill="#999532" d="M32.5 18.5a7,7 0 1,1 14,0a7,7 0 1,1 -14,0M53.5 18.5a7,7 0 1,1 14,0a7,7 0 1,1 -14,0M53.5 81.5a7,7 0 1,1 14,0a7,7 0 1,1 -14,0M32.5 81.5a7,7 0 1,1 14,0a7,7 0 1,1 -14,0M11.5 39.5a7,7 0 1,1 14,0a7,7 0 1,1 -14,0M74.5 39.5a7,7 0 1,1 14,0a7,7 0 1,1 -14,0M74.5 60.5a7,7 0 1,1 14,0a7,7 0 1,1 -14,0M11.5 60.5a7,7 0 1,1 14,0a7,7 0 1,1 -14,0"/><path fill="#ccc866" d="M18.5 29L8 18.5L18.5 8L29 18.5ZM71 18.5L81.5 8L92 18.5L81.5 29ZM81.5 71L92 81.5L81.5 92L71 81.5ZM29 81.5L18.5 92L8 81.5L18.5 71ZM37 42a5,5 0 1,1 10,0a5,5 0 1,1 -10,0M53 42a5,5 0 1,1 10,0a5,5 0 1,1 -10,0M53 58a5,5 0 1,1 10,0a5,5 0 1,1 -10,0M37 58a5,5 0 1,1 10,0a5,5 0 1,1 -10,0"/></svg>