<svg xmlns="http://www.w3.org/2000/svg" width="100" height="100" viewBox="0 0 100 100" preserveAspectRatio="xMidYMid meet"><rect fill="#ffffff" fill-opacity="1" x="0" y="0" width="100" height="100"/><path fill="#a83898" d="M29 8L50 8L50 29ZM71 8L71 29L50 29ZM71 92L50 92L50 71ZM29 92L29 71L50 71ZM8 29L29 29L29 50ZM92 29L92 50L71 50ZM92 71L71 71L71 50ZM8 71L8 50L29 50Z"/><path fill="#e8e8e8" d="M8 29L8 8L18.5 8ZM71 8L92 8L92 18.5ZM92 71L92 92L81.5 92ZM29 92L8 92L8 81.5Z"/><path fill="#d175c3" d="M29 29L50 29L50 50L29 50ZM36.6 42a5.5,5.5 0 1,0 10.9,0a5.5,5.5 0 1,0 -10.9,0M71 29L71 50L50 50L50 29ZM52.5 42a5.5,5.5 0 1,0 10.9,0a5.5,5.5 0 1,0 -10.9,0M71 71L50 71L50 50L71 50ZM52.5 58a5.5,5.5 0 1,0 10.9,0a5.5,5.5 0 1,0 -10.9,0M29 71L29 50L50 50L50 71ZM36.6 58a5.5,5.5 0 1,0 10.9,0a5.5,5.5 0 1,0 -10.9,0"/></svg>